# xmcd CD database file
#
# Track frame offsets:
#	187
#	25687
#	46047
#	73242
#	92247
#	112575
#
# Disc length: 1873 seconds
#
# Revision: 0
# Processed by: cddbd v1.5.1PL0 Copyright (c) Steve Scherf et al.
# Submitted via: CDex 1.51
#
DISCID=40074f06
DTITLE=中山美穂 - THE REMIXES〜MIHO NAKAYAMA MEETS New York GROOVE〜
DYEAR=1997
DGENRE=Japanese Pop
TTITLE0=Angel Soul
TTITLE1=小さな太陽
TTITLE2=The Eternities
TTITLE3=Shining For You
TTITLE4=You're My Only Shinin' Star
TTITLE5=遠い街のどこかで・・・
EXTD=YEAR: 1997
EXTT0=
EXTT1=
EXTT2=
EXTT3=
EXTT4=
EXTT5=
PLAYORDER=
